<svg width="115" height="31" viewBox="0 0 115 31" fill="none" xmlns="http://www.w3.org/2000/svg">
<path d="M67.2627 8.87209L73.8208 6.43023L67.2627 3.91861V0.5L78.4952 5.03488V7.82558L67.2627 12.3605V8.87209Z" fill="#0B0B0B"></path>
<path d="M5.23769 30.5002C2.8656 30.5002 0.912109 29.3142 0.912109 26.663V26.5235C0.912109 23.3142 3.70281 22.1979 7.12141 22.1979H8.72606V21.57C8.72606 20.2444 8.16792 19.477 6.77257 19.477C5.51676 19.477 4.88885 20.1746 4.81909 21.1514H1.33071C1.60978 18.2211 3.91211 16.8258 6.98188 16.8258C10.1214 16.8258 12.4237 18.1514 12.4237 21.4304V30.2211H8.8656V28.6863C8.16792 29.663 6.98188 30.5002 5.23769 30.5002ZM8.72606 25.8956V24.6397H7.26095C5.44699 24.6397 4.54002 25.1281 4.54002 26.3142V26.4537C4.54002 27.3607 5.09816 27.9886 6.35397 27.9886C7.60978 27.9188 8.72606 27.2211 8.72606 25.8956ZM20.7261 30.5002C17.0982 30.5002 14.447 28.2677 14.447 23.8025V23.5932C14.447 19.1281 17.2377 16.756 20.7261 16.756C23.7261 16.756 26.1679 18.2909 26.447 21.7095H22.9586C22.7493 20.4537 22.0516 19.6165 20.7958 19.6165C19.2609 19.6165 18.1447 20.8723 18.1447 23.4537V23.8723C18.1447 26.5235 19.1214 27.7095 20.7958 27.7095C22.0516 27.7095 22.9586 26.8025 23.1679 25.3374H26.5168C26.3075 28.4072 24.2842 30.5002 20.7261 30.5002ZM34.4005 30.5002C30.7726 30.5002 28.1214 28.2677 28.1214 23.8025V23.5932C28.1214 19.1281 30.9121 16.756 34.4005 16.756C37.4005 16.756 39.8423 18.2909 40.1214 21.7095H36.633C36.4237 20.4537 35.7261 19.6165 34.4702 19.6165C32.9354 19.6165 31.8191 20.8723 31.8191 23.4537V23.8723C31.8191 26.5235 32.7958 27.7095 34.4702 27.7095C35.7261 27.7095 36.633 26.8025 36.8423 25.3374H40.1912C39.9819 28.4072 37.9586 30.5002 34.4005 30.5002ZM48.1447 30.5002C44.3772 30.5002 41.7958 28.2676 41.7958 23.8723V23.5932C41.7958 19.1979 44.5168 16.756 48.0749 16.756C51.354 16.756 54.0749 18.57 54.0749 22.9653V24.57H45.4935C45.633 26.9421 46.6795 27.849 48.2144 27.849C49.6098 27.849 50.3772 27.0816 50.6563 26.1746H54.0749C53.6563 28.6165 51.5633 30.5002 48.1447 30.5002ZM45.5633 22.1281H50.447C50.3772 20.1746 49.4702 19.3374 48.0051 19.3374C46.8888 19.4072 45.8423 20.0351 45.5633 22.1281ZM56.3075 17.1049H60.0051V19.0583C60.633 17.8025 61.9586 16.8258 63.9819 16.8258C66.354 16.8258 67.9586 18.2909 67.9586 21.4304V30.2211H64.2609V21.9886C64.2609 20.4537 63.633 19.756 62.3075 19.756C61.0516 19.756 60.0051 20.5235 60.0051 22.1979V30.2211H56.3075V17.1049ZM74.7261 13.1281V17.1049H77.2377V19.8258H74.7261V26.0351C74.7261 27.0118 75.1447 27.5002 76.0516 27.5002C76.6098 27.5002 76.9586 27.4304 77.3074 27.2909V30.1514C76.8888 30.2909 76.1214 30.4304 75.2144 30.4304C72.354 30.4304 71.0284 29.1049 71.0284 26.4537V19.8258H69.4935V17.1049H71.0284V14.663L74.7261 13.1281ZM91.0516 30.2211H87.4237V28.2676C86.7958 29.5235 85.54 30.5002 83.5865 30.5002C81.2144 30.5002 79.4702 29.0351 79.4702 25.9653V17.1049H83.1679V25.477C83.1679 27.0118 83.7958 27.7095 85.0516 27.7095C86.3074 27.7095 87.354 26.8723 87.354 25.2676V17.1049H91.0516V30.2211ZM93.7726 17.1049H97.4702V19.5467C98.2377 17.8025 99.4935 16.9653 101.447 16.9653V20.5932C98.9354 20.5932 97.4702 21.3607 97.4702 23.5235V30.2909H93.7726V17.1049ZM108.912 30.5002C105.145 30.5002 102.563 28.2676 102.563 23.8723V23.5932C102.563 19.1979 105.284 16.756 108.842 16.756C112.121 16.756 114.842 18.57 114.842 22.9653V24.57H106.331C106.47 26.9421 107.517 27.849 109.052 27.849C110.447 27.849 111.214 27.0816 111.493 26.1746H114.912C114.354 28.6165 112.331 30.5002 108.912 30.5002ZM106.261 22.1281H111.214C111.145 20.1746 110.238 19.3374 108.773 19.3374C107.656 19.4072 106.61 20.0351 106.261 22.1281Z" fill="#0B0B0B"></path>
</svg>
