<svg width="108" height="21" viewBox="0 0 108 21" fill="none" xmlns="http://www.w3.org/2000/svg">
<g id="Airbus_Logo_2017 2" clip-path="url(#clip0_468_2146)">
<path id="Vector" d="M49.7798 7.31222C49.7798 3.66276 47.3855 0.888994 42.4514 0.888994H32.5246V20.071H37.1962V5.03463H42.4806C44.4369 5.03463 45.1372 6.14446 45.1372 7.42889C45.1372 8.74282 44.4074 9.82315 42.4511 9.82315H37.9257L44.3489 20.071H49.6628C49.6628 20.071 45.2831 13.1805 45.3126 13.1805C48.0281 12.5384 49.7798 10.6406 49.7798 7.31222ZM24.7 0.888994H29.3716V20.0712H24.7V0.888994ZM12.7587 12.8303H8.8275L11.7366 6.93271H11.7954L18.3352 20.071H23.7074L13.9265 0.888994H9.78088L0 20.071H5.25519L6.83955 16.8595H14.7148L12.7587 12.8303ZM66.8314 10.1152C68.3208 9.29747 69.109 7.9838 69.109 6.05675C69.109 2.96195 66.8025 0.888994 62.9194 0.888994H51.9992V20.071H63.3574C67.3279 20.071 69.9265 17.9395 69.9265 14.6988C69.9262 12.451 68.671 10.7576 66.8314 10.1152ZM56.6713 4.94719H62.9194C63.8538 4.94719 64.5836 5.67698 64.5836 6.64064C64.5836 7.60429 63.8538 8.33408 62.8899 8.33408H56.671V4.94719H56.6713ZM63.0358 16.0417H56.671V12.1294H63.0358C64.1746 12.1294 65.0505 12.9472 65.0505 14.0565C65.0508 15.195 64.1746 16.0417 63.0358 16.0417ZM84.6705 11.604C84.6705 14.5156 83.3273 16.1294 80.6708 16.1294C78.0432 16.1294 76.7 14.5156 76.7 11.604V0.888994H71.912V11.2537C71.912 17.1808 75.0361 20.48 80.6708 20.48C86.3055 20.48 89.4587 17.1808 89.4587 11.2537V0.888994H84.6705V11.604ZM101.925 8.50921C97.4907 7.42943 96.5243 7.32629 96.5243 6.05648C96.5243 5.07415 97.6336 4.59665 99.5022 4.59665C101.984 4.59665 104.627 5.21924 106.13 6.14419L107.619 2.23189C105.692 1.21003 102.86 0.47998 99.5607 0.47998C94.6262 0.47998 91.8525 2.93271 91.8525 6.23162C91.8525 9.78146 93.9243 11.2237 98.6844 12.2461C102.39 13.063 103.18 13.5728 103.18 14.6109C103.18 15.7386 102.159 16.2461 100.144 16.2461C97.2246 16.2461 94.5821 15.5369 92.4656 14.3775L91.035 18.465C93.3415 19.6912 96.7866 20.4797 100.261 20.4797C105.108 20.4797 107.998 18.2313 107.998 14.465C107.998 11.4432 106.043 9.50211 101.925 8.50921Z" fill="#0B0B0B"></path>
</g>
<defs>
<clipPath id="clip0_468_2146">
<rect width="107.998" height="20" fill="white" transform="translate(0 0.47998)"></rect>
</clipPath>
</defs>
</svg>
