<svg width="242" height="55" viewBox="0 0 242 55" fill="none" xmlns="http://www.w3.org/2000/svg">
<g clip-path="url(#clip0_509_28906)">
<path d="M1.12451 53.6245H54.3829V1.61332H1.12451V53.6245Z" fill="url(#paint0_linear_509_28906)"></path>
<path d="M5.28514 2.5448C4.25188 2.5448 3.57682 3.41047 3.41651 4.6244C3.41651 4.6244 2.08643 11.5672 2.08643 26.3097C2.08643 41.0597 3.41651 50.7102 3.41651 50.7102C3.53925 51.8769 4.25188 52.7886 5.28514 52.7886H51.3834C52.4129 52.7886 53.232 51.9776 53.2495 50.7102C53.2495 50.7102 52.7373 39.4067 52.7373 28.3669C52.7373 17.3259 53.2495 4.6244 53.2495 4.6244C53.2746 3.49504 52.4129 2.5448 51.3834 2.5448H5.28514Z" fill="url(#paint1_linear_509_28906)"></path>
<path d="M31.1741 7.85082C32.6282 8.45654 38.472 11.5946 39.1884 12.5971C36.2477 12.9827 30.4803 14.474 27.3742 15.9752L27.1926 16.3384C30.618 15.5896 35.4061 15.1978 38.7075 15.02C37.4751 16.816 36.6585 17.6717 34.7836 19.7041L34.6095 20.0983C38.1827 17.9665 39.1884 17.8135 42.4823 15.8981C43.726 17.7252 44.0253 21.9354 44.0729 25.2725C45.145 23.1555 46.4463 15.1804 45.9052 13.7389C48.0895 12.2501 48.385 11.0511 48.385 11.0511C46.3824 11.2227 45.2777 11.2563 44.1981 11.5946C41.6394 10.0361 35.7718 7.98018 31.3432 7.48267L31.1741 7.85082Z" fill="url(#paint2_linear_509_28906)"></path>
<path d="M9.35672 32.6345C9.06741 35.2912 8.95093 37.1917 9.33418 39.3174C8.25082 39.6146 7.30148 39.6569 6.42854 40.0263L6.26196 40.3907C7.65091 41.2415 8.78186 41.8932 10.3524 42.6208C11.1928 44.4131 12.0607 45.6221 13.4685 47.0027L13.64 46.6333C13.387 45.6146 13.0589 44.7726 13.1829 43.6594C14.9288 44.1644 16.4267 44.4318 18.4168 44.4915L18.5846 44.1221C16.835 43.448 15.0866 42.9169 13.6714 41.591C14.116 40.3621 14.6257 39.3982 15.4573 38.1793L15.6327 37.8062C14.1297 38.0313 12.7671 38.5773 11.4671 38.8286C10.4426 37.04 10.0443 34.5935 9.52831 32.2626L9.35672 32.6345Z" fill="url(#paint3_linear_509_28906)"></path>
<path d="M18.274 20.5089C18.274 20.5089 17.1493 20.4019 15.2882 20.4579C13.7152 20.5301 11.3693 20.6694 10.2284 21.0027L10.0618 21.3659C11.8753 21.443 14.3602 21.9268 15.3108 22.8746C15.3108 22.8746 12.5579 25.341 9.82886 30.739C9.82886 30.739 14.776 26.1296 16.9201 24.9865C16.9201 24.9865 18.0423 28.698 18.8213 30.5562L18.9929 30.1855C19.2083 28.9915 19.7456 25.7527 20.6574 23.7713C20.6574 23.7713 20.9805 23.5761 22.5623 23.4231C24.1479 23.2825 26.3898 23.1992 30.6468 23.9417L30.8196 23.5786C29.8477 23.0089 25.974 21.3597 21.8735 20.8111H22.0075C22.5699 19.1669 23.2737 17.9268 23.2737 17.9268C22.4045 18.0487 19.9297 19.198 18.274 20.5089Z" fill="url(#paint4_linear_509_28906)"></path>
<path d="M28.6366 43.2814C28.5753 42.5612 28.5289 41.948 28.4926 41.1371C27.6322 42.2963 26.897 43.208 25.9477 44.2664C24.9445 44.5438 23.7972 44.5326 22.7515 44.5214C22.3382 44.5164 21.9386 44.5127 21.5717 44.5239L21.4026 44.8933C22.3757 45.3908 23.3313 45.6968 24.3508 45.9045C23.5242 46.652 22.4196 47.2204 21.6431 47.7416L21.4727 48.1047C23.136 47.7142 25.3265 47.0127 26.9584 46.0562C27.8075 46.0935 28.6003 46.0376 29.1827 45.9231C29.1827 45.9231 29.3568 45.5463 29.3568 45.555C29.2503 45.1819 28.9159 44.9542 28.8182 44.4319C30.3475 43.2527 31.4559 42.1781 32.7346 40.9008L32.9124 40.5301C31.6487 41.3958 30.1145 42.5861 28.6366 43.2814Z" fill="url(#paint5_linear_509_28906)"></path>
<mask id="mask0_509_28906" style="mask-type:luminance" maskUnits="userSpaceOnUse" x="-53" y="0" width="782" height="54">
<path d="M-52.8027 53.6245H728.242V0.738937H-52.8027V53.6245Z" fill="white"></path>
</mask>
<g mask="url(#mask0_509_28906)">
<path d="M42.6514 15.525C39.3651 17.4442 38.3581 17.6059 34.7837 19.7302C36.8652 17.4877 37.5891 16.5325 38.8766 14.6556C35.5815 14.8297 30.7934 15.2228 27.3743 15.9753C30.35 14.3969 36.2503 12.6419 39.3651 12.224C38.6424 11.234 32.7973 8.08969 31.3432 7.48397C35.971 7.84093 41.6269 9.5586 44.3698 11.224C45.4481 10.8894 46.5703 10.8733 48.5779 10.6954C48.067 11.5673 48.0444 12.0723 46.0743 13.3695C46.6204 14.8185 45.3166 22.7899 44.2395 24.9006C44.2007 21.5661 43.9076 17.3546 42.6514 15.525Z" fill="white"></path>
<path d="M18.5843 44.1224C16.6957 43.4271 15.3355 42.6174 13.8376 41.2268C14.286 39.998 14.7982 39.0378 15.6323 37.8064C14.0969 38.034 12.9647 38.2057 11.6421 38.4544C10.565 36.5838 10.0766 34.7766 9.52799 32.2629C9.23492 34.9271 9.12346 36.8301 9.50169 38.9507C8.28809 39.2853 7.42766 39.5788 6.42822 40.0253C7.82844 40.8761 8.95939 41.5316 10.5224 42.2554C11.3628 44.0452 12.2307 45.2542 13.641 46.6335C13.3103 45.4582 13.2227 44.5241 13.3579 43.2915C15.1051 43.7965 16.6005 44.0614 18.5843 44.1224Z" fill="white"></path>
<path d="M23.5017 17.6101C22.913 18.3688 22.2304 19.783 22.0463 20.4397C26.9145 21.0952 30.8209 23.5778 30.8209 23.5778C26.5639 22.8278 24.3208 22.9211 22.7327 23.0629C21.1546 23.2109 20.8302 23.3949 20.8302 23.3949C19.6817 25.8937 18.9929 30.1847 18.9929 30.1847C18.2189 28.3303 17.0992 24.6163 17.0992 24.6163C14.9513 25.7569 10.0117 30.3726 10.0117 30.3726C12.727 24.9696 15.4836 22.5119 15.4836 22.5119C14.5355 21.5579 12.0482 21.0815 10.2284 21.0019C11.1727 20.6188 13.5962 20.1711 15.4573 20.0865C17.3209 20.033 18.4481 20.1387 18.4481 20.1387C20.1101 18.8352 22.6325 17.7382 23.5017 17.6101Z" fill="white"></path>
<path d="M28.6654 40.773C27.8063 41.931 27.0673 42.8402 26.1142 43.8987C24.476 44.3551 23.1685 44.5243 21.5717 44.5243C22.5523 45.0268 23.5017 45.3278 24.5249 45.5405C23.5017 46.4596 22.6375 47.1138 21.6443 47.7419C23.3088 47.3502 25.4968 46.6487 27.1262 45.6922C27.9778 45.7245 28.7731 45.6698 29.3568 45.5554C29.204 45.0653 29.1113 44.6997 28.9873 44.0616C30.5215 42.8825 31.6349 41.8141 32.9124 40.5305C31.5535 41.472 30.3813 42.1748 28.8082 42.9123C28.7406 42.1934 28.7018 41.584 28.6654 40.773Z" fill="white"></path>
</g>
<mask id="mask1_509_28906" style="mask-type:luminance" maskUnits="userSpaceOnUse" x="-53" y="0" width="782" height="54">
<path d="M-52.8027 53.6245H728.242V0.738937H-52.8027V53.6245Z" fill="white"></path>
</mask>
<g mask="url(#mask1_509_28906)">
<path d="M73.8108 21.5487C77.0709 21.5761 78.2644 22.234 78.2644 23.9965C78.2644 24.4828 78.1141 24.9144 77.8261 25.244C77.2011 25.989 75.985 26.3758 74.4345 26.2788H74.3543L73.4438 28.6345H74.3543C76.1541 28.5835 77.7184 29.147 78.5224 30.1221C78.8932 30.5661 79.0798 31.101 79.0798 31.6457C79.0798 33.489 77.4453 34.4405 74.2216 34.4405C73.6793 34.4405 72.7963 34.4405 72.2478 34.4231C72.1551 31.9629 72.1137 28.6345 72.1137 27.6308C72.1137 26.4704 72.1901 23.8833 72.2478 21.6731C72.6197 21.5972 73.2372 21.5487 73.8108 21.5487ZM67.7728 19.8547C67.873 21.6022 67.9757 26.0201 67.9757 27.6308C67.9757 29.1159 67.9745 34.086 67.7127 36.2291L67.6964 36.397H75.5153C79.3591 36.397 83.4232 35.2104 83.4232 31.8199C83.4232 29.6992 81.8765 28.1308 78.9833 27.2726C81.13 26.7005 82.559 25.244 82.559 23.5786C82.559 20.8112 79.3591 19.7701 76.3507 19.698H67.7277L67.7728 19.8547Z" fill="black"></path>
<path d="M101.47 19.6975H97.6649L97.8189 23.9089C97.8928 25.9897 97.9642 28.1303 98.112 30.2087C97.8665 29.5569 97.6373 29.2223 96.4801 27.5507C96.4763 27.4922 92.5211 21.4512 91.1485 19.736L91.1096 19.6975H86.6948V19.8542C86.8351 21.6017 86.8914 26.0208 86.8914 27.6315C86.8914 29.1166 86.8914 34.0855 86.681 36.2286L86.6422 36.3977H90.5774V36.2286C90.3532 32.1527 90.3532 28.0395 90.3532 24.0494C90.4897 24.5333 90.6638 24.9487 91.2837 25.8604C91.3351 25.9686 98.112 35.7659 98.4414 36.3268L98.4752 36.3977H101.628L101.623 36.2286C101.382 34.0855 101.362 29.1166 101.362 27.6315C101.362 26.0208 101.47 21.6017 101.572 19.8542L101.623 19.6975H101.47Z" fill="black"></path>
<path d="M111.789 21.7129C113.982 21.6731 115.513 22.1134 116.24 23.0275C116.574 23.4206 116.758 23.9392 116.758 24.5338C116.758 26.9504 114.02 27.4753 111.732 27.4753L110.802 27.4231C110.802 27.4231 110.583 27.4019 110.42 27.3845C110.404 26.8261 110.404 26.0897 110.404 25.2639C110.404 24.2129 110.404 22.9654 110.453 21.8099C110.776 21.7676 111.263 21.7129 111.789 21.7129ZM106.019 19.8547C106.173 21.6022 106.232 26.0201 106.232 27.632C106.232 29.1159 106.232 34.086 106.002 36.229V36.3982H110.682L110.662 36.229C110.502 34.6867 110.42 31.7465 110.404 29.4989C110.623 29.5101 111.288 29.5437 111.288 29.5437L111.95 29.5574C118.107 29.5574 121.101 27.9392 121.101 24.5338C121.101 20.6594 116.9 19.7701 113.399 19.6979H106.019V19.8547Z" fill="black"></path>
<path d="M135.797 21.7129C137.995 21.6731 139.525 22.1134 140.261 23.0275C140.599 23.4206 140.768 23.9392 140.768 24.5338C140.768 26.9504 138.034 27.4753 135.775 27.4753L134.848 27.4231C134.848 27.4231 134.603 27.4019 134.459 27.3845C134.434 26.8261 134.434 26.086 134.434 25.2639C134.434 24.2029 134.434 22.9654 134.477 21.8099C134.77 21.7676 135.276 21.7129 135.797 21.7129ZM130.036 19.8547C130.184 21.6022 130.269 26.0201 130.269 27.632C130.269 29.1159 130.254 34.086 130.011 36.229V36.3982H134.695L134.668 36.229C134.519 34.6867 134.434 31.7465 134.434 29.4989C134.651 29.5101 135.276 29.5437 135.276 29.5437L135.955 29.5574C142.11 29.5574 145.131 27.9392 145.131 24.5338C145.131 20.6594 140.906 19.7701 137.391 19.6979H130.036V19.8547Z" fill="black"></path>
<path d="M152.53 24.6156C152.902 25.4116 153.869 27.6318 154.956 30.281C154.788 30.2885 154.577 30.2885 154.577 30.2885L152.53 30.3159C152.53 30.3159 150.411 30.2885 150.056 30.281C150.94 28.1629 151.816 26.2487 152.53 24.6156ZM151.391 19.6977H151.33L151.297 19.781C150.426 22.1579 144.811 34.3258 143.922 36.189L143.848 36.3979H147.834L147.868 36.3059C148.219 35.1604 148.691 33.8693 149.205 32.4912C149.364 32.4912 152.53 32.444 152.53 32.444L155.284 32.4639C155.284 32.4639 155.727 32.4912 155.86 32.4912C156.569 34.286 157.114 35.6392 157.35 36.3271L157.395 36.3979H162.016L154.552 19.6977H154.46H151.391Z" fill="black"></path>
<path d="M163.893 19.8542C164.027 21.6017 164.095 26.0208 164.095 27.6315C164.095 29.1166 164.095 34.0855 163.839 36.2286V36.3977H168.549L168.529 36.2286C168.279 34.0706 168.262 29.1166 168.262 27.6315C168.262 26.4711 168.298 23.884 168.415 21.792C168.773 21.7671 169.316 21.7124 169.685 21.7124C171.864 21.6726 173.403 22.1191 174.123 23.0271C174.469 23.4213 174.624 23.9512 174.624 24.5333C174.624 26.4624 172.812 27.44 171.122 27.5271C170.556 27.5507 170.135 27.4786 170.135 27.4786L169.807 27.4226L169.988 27.7286C171.66 30.1502 174.16 34.343 175.193 36.3268L175.222 36.3977H180.253L180.127 36.1726C179.922 35.8915 176.646 31.1017 175.253 29.0557C175.253 29.0557 175.193 28.9972 175.131 28.9325C177.711 28.1626 178.958 26.731 178.958 24.5333C178.958 20.6875 174.757 19.7721 171.21 19.6975H163.88L163.893 19.8542Z" fill="black"></path>
<path d="M186.91 19.6975H182.425L182.451 19.8542C182.567 21.6017 182.657 26.0208 182.657 27.6315C182.657 29.1091 182.637 34.0706 182.425 36.2286L182.408 36.3977H187.057L187.033 36.2286C186.854 34.0706 186.799 29.1091 186.799 27.6315C186.799 26.0208 186.91 21.6017 187.033 19.8542V19.6975H186.91Z" fill="black"></path>
<path d="M197.331 21.5487C200.615 21.5761 201.81 22.234 201.81 23.9965C201.81 24.4828 201.658 24.9144 201.36 25.244C200.768 25.989 199.504 26.3758 197.963 26.2788H197.887L196.983 28.6345H197.887C199.693 28.5835 201.243 29.147 202.046 30.1221C202.438 30.5661 202.625 31.101 202.625 31.6457C202.625 33.489 200.983 34.4405 197.742 34.4405C197.222 34.4405 196.345 34.4405 195.797 34.4231C195.663 31.9629 195.663 28.6345 195.663 27.6308C195.663 26.4704 195.704 23.8833 195.797 21.6731C196.151 21.5972 196.766 21.5487 197.331 21.5487ZM191.295 19.8547C191.429 21.6022 191.511 26.0201 191.511 27.6308C191.511 29.1159 191.511 34.086 191.275 36.2291L191.238 36.397H199.069C202.898 36.397 206.976 35.2104 206.976 31.8199C206.976 29.6992 205.425 28.1308 202.507 27.2726C204.658 26.7005 206.104 25.244 206.104 23.5786C206.104 20.8112 202.898 19.7701 199.917 19.698H191.275L191.295 19.8547Z" fill="black"></path>
<path d="M216.555 24.6067C216.932 25.384 217.891 27.6079 218.98 30.2634C218.814 30.2634 218.612 30.2808 218.612 30.2808L216.555 30.3082C216.555 30.3082 214.411 30.2634 214.093 30.2634C214.965 28.1303 215.817 26.2298 216.555 24.6067ZM218.49 19.6975H215.341L215.323 19.7721C214.382 22.3007 208.451 35.1104 207.952 36.1726L207.866 36.3977H211.872L211.897 36.2982C212.232 35.1539 212.698 33.8691 213.219 32.4636C213.346 32.4636 216.53 32.4139 216.53 32.4139L219.289 32.4574C219.289 32.4574 219.769 32.4636 219.875 32.4636C220.599 34.2584 221.136 35.6228 221.371 36.2982L221.413 36.3977H226.05L218.592 19.6975H218.49Z" fill="black"></path>
<path d="M227.362 24.0161C227.362 26.9501 230.321 28.1305 232.942 29.2101C234.982 30.0173 237.116 30.8668 237.116 32.2661C237.116 32.689 237.032 33.0447 236.794 33.2947C236.303 33.8693 235.31 34.1106 233.733 34.0235C232.171 33.9613 230.41 33.4725 228.429 32.5658L227.654 32.1952V32.8444V35.8332L228.182 35.9676L228.49 36.0198C229.469 36.2611 231.358 36.7026 233.235 36.7026C238.173 36.7026 241.12 34.7462 241.12 31.5123C241.12 28.475 238.078 27.2947 235.389 26.23C233.409 25.4327 231.358 24.6429 231.358 23.3407C231.358 22.9651 231.358 21.8693 233.917 21.8693C235.802 21.8693 237.634 22.6317 238.675 23.0273L239.625 23.4215L239.618 22.7947V19.7698L238.675 19.6006C237.716 19.4079 236.115 19.0919 234.467 19.0919C230.206 19.0919 227.362 21.0895 227.362 24.0161Z" fill="black"></path>
</g>
</g>
<defs>
<linearGradient id="paint0_linear_509_28906" x1="27.7533" y1="0.313588" x2="27.7533" y2="56.1465" gradientUnits="userSpaceOnUse">
<stop stop-color="#007348"></stop>
<stop offset="0.600006" stop-color="#8DC9AB"></stop>
<stop offset="1" stop-color="#00925B"></stop>
</linearGradient>
<linearGradient id="paint1_linear_509_28906" x1="27.6696" y1="-11.5242" x2="27.6696" y2="51.2167" gradientUnits="userSpaceOnUse">
<stop stop-color="#00925B"></stop>
<stop offset="0.300003" stop-color="#8DC9AB"></stop>
<stop offset="0.550003" stop-color="#00925B"></stop>
<stop offset="0.835159" stop-color="#007348"></stop>
<stop offset="1" stop-color="#009C6D"></stop>
</linearGradient>
<linearGradient id="paint2_linear_509_28906" x1="37.7891" y1="47.7518" x2="37.7891" y2="7.15108" gradientUnits="userSpaceOnUse">
<stop stop-color="#00A678"></stop>
<stop offset="1" stop-color="#00925B"></stop>
</linearGradient>
<linearGradient id="paint3_linear_509_28906" x1="12.4234" y1="47.7542" x2="12.4234" y2="7.14114" gradientUnits="userSpaceOnUse">
<stop stop-color="#00A678"></stop>
<stop offset="1" stop-color="#00925B"></stop>
</linearGradient>
<linearGradient id="paint4_linear_509_28906" x1="20.325" y1="47.7451" x2="20.325" y2="7.15877" gradientUnits="userSpaceOnUse">
<stop stop-color="#00A678"></stop>
<stop offset="1" stop-color="#00925B"></stop>
</linearGradient>
<linearGradient id="paint5_linear_509_28906" x1="27.1569" y1="47.7508" x2="27.1569" y2="7.15054" gradientUnits="userSpaceOnUse">
<stop stop-color="#00A678"></stop>
<stop offset="1" stop-color="#00925B"></stop>
</linearGradient>
<clipPath id="clip0_509_28906">
<rect width="242" height="54" fill="white" transform="translate(0 0.719971)"></rect>
</clipPath>
</defs>
</svg>
