<svg xmlns="http://www.w3.org/2000/svg" fill="none" viewBox="0 0 180 40" height="40" width="180">
<path fill="#0B0B0B" d="M160.92 29.7822C161.215 30.4499 161.969 32.3399 162.82 34.5687C162.684 34.5714 162.536 34.5687 162.536 34.5687L160.92 34.5992C160.92 34.5992 159.282 34.5711 159.021 34.5687C159.701 32.7741 160.342 31.1589 160.92 29.7822ZM111.223 29.7822C111.518 30.4473 112.272 32.3387 113.122 34.5687C112.998 34.5729 112.839 34.5687 112.839 34.5687L111.223 34.5992C111.223 34.5992 109.584 34.5773 109.323 34.5687C110.004 32.772 110.644 31.1556 111.223 29.7822ZM98.2102 27.3275C99.9113 27.2943 101.119 27.6664 101.697 28.4318C101.958 28.7841 102.094 29.2177 102.094 29.7206C102.094 31.7692 99.9906 32.2058 98.2102 32.2058L97.4732 32.1756C97.4732 32.1756 97.2916 32.1303 97.1896 32.114C97.1784 31.6425 97.1611 31.0387 97.1611 30.3345C97.1611 29.4326 97.1841 28.4064 97.2177 27.4195C97.4447 27.374 97.8246 27.3373 98.2102 27.3275ZM79.5844 27.3275C81.2854 27.2943 82.4647 27.6664 83.0428 28.4318C83.3037 28.7841 83.4397 29.2177 83.4397 29.7206C83.4397 31.7692 81.3363 32.2058 79.5556 32.2058L78.8189 32.1756C78.8189 32.1756 78.6488 32.1303 78.5356 32.114C78.5241 31.6425 78.5356 31.0375 78.5356 30.3345C78.5356 29.4326 78.5295 28.4064 78.5634 27.4195C78.7789 27.374 79.1875 27.3373 79.5844 27.3275ZM145.356 27.2046C145.565 27.1881 145.787 27.2026 146.008 27.2046C148.549 27.2144 149.495 27.762 149.495 29.2603C149.495 29.6617 149.382 30.0077 149.155 30.3037C148.668 30.9309 147.692 31.2574 146.49 31.1938H146.434L145.725 33.1882H146.462C147.857 33.145 149.042 33.6224 149.666 34.4462C149.96 34.828 150.119 35.267 150.119 35.7347C150.119 37.3082 148.843 38.0973 146.349 38.0973C145.918 38.0973 145.248 38.0946 144.817 38.0668C144.727 35.9963 144.704 33.1929 144.704 32.3594C144.704 31.3702 144.749 29.1695 144.817 27.2967C144.954 27.2704 145.148 27.2212 145.356 27.2046ZM49.42 27.2046C49.6297 27.1881 49.8794 27.2026 50.1004 27.2046C52.6293 27.2144 53.5592 27.762 53.5592 29.2603C53.5592 29.6617 53.4626 30.0077 53.2474 30.3037C52.7595 30.9309 51.773 31.2574 50.5823 31.1938H50.5257L49.8168 33.1882H50.5257C51.9204 33.145 53.1339 33.6224 53.7574 34.4462C54.0522 34.828 54.183 35.267 54.183 35.7347C54.183 37.3082 52.9072 38.0973 50.4125 38.0973C49.9929 38.0973 49.3125 38.0946 48.8815 38.0668C48.7907 35.9963 48.7964 33.1929 48.7964 32.3594C48.7964 31.3714 48.8246 29.1757 48.8815 27.2967C49.0232 27.2704 49.21 27.2212 49.42 27.2046ZM159.985 25.6089L159.957 25.6702C159.242 27.8085 154.644 38.6766 154.258 39.5699L154.173 39.754H157.292L157.32 39.6619C157.592 38.6997 157.921 37.6012 158.34 36.4095C158.442 36.4072 160.92 36.3788 160.92 36.3788L163.047 36.4095C163.047 36.4095 163.409 36.4072 163.5 36.4095C164.067 37.9313 164.481 39.0862 164.663 39.6619L164.691 39.754H168.291L162.48 25.6086L159.985 25.6089ZM141.302 25.6089V25.7625C141.404 27.2499 141.472 30.9895 141.472 32.3594C141.472 33.6091 141.484 37.783 141.302 39.601L141.274 39.754H147.369C150.329 39.754 153.493 38.7529 153.493 35.888C153.493 34.0916 152.291 32.7546 150.034 32.0217C151.69 31.5484 152.812 30.3185 152.812 28.8921C152.812 26.5603 150.318 25.6619 147.993 25.6089H141.302ZM134.442 25.6089V25.7318C134.544 27.2268 134.612 30.9591 134.612 32.3289C134.612 33.5748 134.594 37.7821 134.413 39.6013V39.7543H138.042L138.013 39.6013C137.832 37.7821 137.844 33.5748 137.844 32.3289C137.844 30.9582 137.923 27.223 138.013 25.7318V25.6089H134.442ZM120.04 25.6089V25.7625C120.142 27.2526 120.21 30.9531 120.21 32.3289C120.21 33.5748 120.204 37.7856 120.011 39.601V39.754H123.64V39.601C123.459 37.7797 123.441 33.5748 123.441 32.3289C123.441 31.3421 123.487 29.1428 123.555 27.3888C123.85 27.3479 124.247 27.3337 124.519 27.3275C126.22 27.2931 127.428 27.6685 128.006 28.4318C128.267 28.7793 128.403 29.2189 128.403 29.7206C128.403 31.3533 126.968 32.1608 125.653 32.2366C125.222 32.2611 124.888 32.2058 124.888 32.2058L124.633 32.1448L124.803 32.421C126.073 34.4622 128.012 38.0005 128.828 39.6927L128.857 39.754H132.74L132.627 39.5397C132.491 39.3139 129.934 35.256 128.857 33.5254C128.857 33.5254 128.823 33.4824 128.8 33.4336C130.773 32.7842 131.748 31.5765 131.748 29.7206C131.749 26.4484 128.471 25.6717 125.738 25.6089H120.04ZM110.287 25.6089L110.259 25.7013C109.59 27.7117 105.241 37.9931 104.56 39.5702L104.475 39.754H107.594L107.622 39.6927C107.894 38.7287 108.224 37.6261 108.643 36.4406L111.223 36.3791L113.349 36.4098C113.349 36.4098 113.712 36.4406 113.803 36.4406C114.37 37.9662 114.784 39.1238 114.965 39.6927L114.993 39.754H118.593L112.782 25.6089H110.287ZM93.7593 25.6089V25.7318C93.8613 27.2268 93.9575 30.9543 93.9575 32.3289C93.9575 33.5769 93.9121 37.7844 93.7306 39.6013V39.7543H97.3597V39.6013C97.235 38.3063 97.1838 35.8392 97.1611 33.9244C97.32 33.9329 97.8418 33.9554 97.8418 33.9554L98.3521 33.9859C103.149 33.9859 105.468 32.5927 105.468 29.7206C105.468 26.4475 102.191 25.6755 99.4576 25.6092L93.7593 25.6089ZM75.105 25.6089L75.1331 25.7318C75.2352 27.2268 75.3033 30.9543 75.3033 32.3289C75.3033 33.5769 75.2863 37.7844 75.105 39.6013L75.0765 39.7543H78.7338L78.7054 39.6013C78.5807 38.3063 78.5468 35.8392 78.5356 33.9244C78.683 33.9329 79.1875 33.9554 79.1875 33.9554L79.6979 33.9859C84.4948 33.9859 86.8136 32.5927 86.8136 29.7206C86.8136 26.4475 83.5646 25.6755 80.8317 25.6092L75.105 25.6089ZM60.108 25.6089V25.7625C60.21 27.2526 60.2781 30.9531 60.2781 32.3289C60.2781 33.5757 60.2611 37.7856 60.0795 39.601V39.754H63.113V39.6315C62.9429 36.1653 62.9429 32.6871 62.9429 29.3219C63.0449 29.7159 63.2137 30.101 63.6799 30.8563C63.7253 30.9431 68.9645 39.2032 69.2369 39.6927V39.754H71.7029L71.675 39.601C71.5049 37.7818 71.5049 33.5757 71.5049 32.3289C71.5049 30.9528 71.5842 27.2467 71.675 25.7625V25.6089H68.613L68.7544 29.1686C68.8113 30.9457 68.8398 32.7522 68.953 34.5075C68.749 33.9699 68.5903 33.6739 67.7056 32.2674C67.6829 32.2173 64.6325 27.0871 63.5665 25.6397L63.538 25.6089H60.108ZM45.3943 25.6089V25.7625C45.4963 27.2526 45.5641 30.9895 45.5641 32.3594C45.5641 33.6091 45.5475 37.783 45.3659 39.601V39.754H51.4328C54.4039 39.754 57.5564 38.7529 57.5564 35.888C57.5564 34.0916 56.3714 32.7546 54.1261 32.0217C55.7703 31.5484 56.9044 30.3185 56.9044 28.8921C56.9044 26.5603 54.4094 25.6619 52.0848 25.6089H45.3943ZM174.84 25.1182C171.54 25.1182 169.312 26.7766 169.312 29.2606C169.312 31.7497 171.637 32.7534 173.678 33.6485C175.254 34.3402 176.91 35.0734 176.91 36.2565C176.91 36.6185 176.808 36.8923 176.626 37.1155C176.252 37.6018 175.469 37.825 174.245 37.7599C173.043 37.6974 171.682 37.2629 170.162 36.5022L169.539 36.1952V39.2635L169.936 39.3864L170.191 39.4476C170.951 39.6454 172.402 40 173.876 40C177.709 40 180 38.3602 180 35.6121C180 33.0645 177.636 32.0332 175.549 31.1325C174.018 30.471 172.431 29.7922 172.431 28.7083C172.431 28.3904 172.413 27.4503 174.387 27.4503C175.861 27.4503 177.318 28.0826 178.1 28.4318L178.838 28.7696V25.6705L178.1 25.5172C177.363 25.3624 176.121 25.1182 174.84 25.1182Z"></path>
<path fill="#0B0B0B" d="M31.9982 8.73977C32.387 9.81826 31.4591 15.7558 30.6925 17.3351C30.6595 14.849 30.4315 11.7117 29.554 10.355C27.2097 11.781 26.5039 11.8906 23.9707 13.47C25.4487 11.8052 25.9485 11.0898 26.8595 9.69138C24.5152 9.81965 21.1098 10.116 18.6656 10.6722C20.7987 9.50578 25.0098 8.20776 27.221 7.90335C26.6987 7.166 22.5321 4.80089 21.4986 4.35569C24.7874 4.62086 28.8209 5.90498 30.7758 7.1532C31.5537 6.90528 32.3535 6.88107 33.7758 6.74946C33.4092 7.39917 33.4092 7.77981 31.9982 8.73977ZM22.6098 28.9303C21.71 29.8844 20.9322 30.6749 19.832 31.555C19.9319 32.0305 20.0099 32.3085 20.1098 32.6799C19.6988 32.7595 19.0986 32.7873 18.4989 32.7668C17.3433 33.4716 15.7988 34.0025 14.6099 34.2954C15.3103 33.8291 15.9435 33.3377 16.6656 32.6513C15.9435 32.5002 15.2436 32.274 14.5545 31.9011C15.6879 31.897 16.6099 31.7701 17.7765 31.4398C18.4654 30.6493 18.9877 29.9907 19.6099 29.1323C19.6324 29.7322 19.6656 30.1832 19.7211 30.7186C20.821 30.1726 21.6543 29.6284 22.6098 28.9303ZM12.7214 21.2581C12.166 19.8828 11.3881 17.1045 11.3881 17.1045C9.86589 17.9562 6.33298 21.3733 6.33298 21.3733C8.25524 17.3582 10.2217 15.5182 10.2217 15.5182C9.54381 14.8189 7.78848 14.4842 6.49964 14.4219C7.16603 14.1361 8.89966 13.79 10.2217 13.7299C11.5438 13.6873 12.3326 13.7875 12.3326 13.7875C13.5215 12.8139 15.3106 11.9808 15.9438 11.8837C15.5102 12.4432 15.0215 13.4978 14.8881 13.9895C18.3433 14.4831 21.1377 16.3256 21.1377 16.3256C18.0933 15.7719 16.51 15.8468 15.3881 15.9508C14.2544 16.0638 14.0269 16.2104 14.0269 16.2104C13.2158 18.0541 12.7214 21.2581 12.7214 21.2581ZM8.91601 33.4588C7.91629 32.4398 7.31072 31.5575 6.72177 30.2283C5.5996 29.6955 4.77726 29.1935 3.77755 28.5555C4.48868 28.2266 5.1055 28.0215 5.97178 27.7767C5.70517 26.1993 5.77752 24.7607 5.99965 22.7866C6.38844 24.6514 6.73303 26.0045 7.49963 27.4013C8.44415 27.2101 9.24398 27.073 10.3329 26.911C9.74397 27.8167 9.37715 28.5427 9.05507 29.4495C10.1215 30.4843 11.0883 31.0937 12.4436 31.6126C11.0218 31.5656 9.97735 31.3577 8.72174 30.9782C8.63305 31.8928 8.68262 32.5901 8.91601 33.4588ZM0 39.3301H37.8757V0H0V39.3301Z"></path>
</svg>
