<svg width="104" height="25" viewBox="0 0 104 25" fill="none" xmlns="http://www.w3.org/2000/svg">
<g id="logo-leidos">
<path id="Fill-1" d="M55.018 9.44444H59.0813V6.13095H55.018V9.44444ZM55.0007 24.614H59.0637V11.688H55.0007V24.614ZM100.874 15.5019C100.276 14.7772 99.4846 14.4147 98.5174 14.4147C97.8312 14.4147 97.0222 14.7081 97.0222 15.4849C97.0222 17.4002 103.882 15.7783 103.882 20.6967C103.882 23.9929 100.628 24.9592 97.8133 24.9592C95.9666 24.9592 93.9437 24.5103 92.6422 23.1991L95.1049 20.5067C95.8612 21.4042 96.7583 21.9219 97.9718 21.9219C98.8866 21.9219 99.8189 21.6803 99.8189 20.9901C99.8189 18.919 92.9588 20.6622 92.9588 15.7435C92.9588 12.7064 95.7203 11.3776 98.4822 11.3776C100.223 11.3776 102.141 11.8089 103.372 13.0859L100.874 15.5019ZM84.3925 21.4214C86.4157 21.4214 87.6468 20.0926 87.6468 18.1425C87.6468 16.1924 86.4157 14.8636 84.3925 14.8636C82.3524 14.8636 81.1389 16.1924 81.1389 18.1425C81.1389 20.0926 82.3524 21.4214 84.3925 21.4214ZM84.3925 11.3776C88.4559 11.3776 91.7101 14.0352 91.7101 18.1598C91.7101 22.2844 88.4559 24.9419 84.3925 24.9419C80.3298 24.9419 77.0755 22.2844 77.0755 18.1598C77.0755 14.0352 80.3298 11.3776 84.3925 11.3776ZM68.3687 14.8808C66.3282 14.8808 65.1144 16.2096 65.1144 18.1598C65.1144 20.1096 66.3282 21.4387 68.3687 21.4387C70.4091 21.4387 71.6226 20.1096 71.6226 18.1598C71.6226 16.2096 70.4091 14.8808 68.3687 14.8808ZM75.3693 24.614H71.6226V22.9054H71.5698C70.9368 23.8374 69.3712 24.9247 67.5244 24.9247C63.6195 24.9247 61.0514 22.1634 61.0514 18.2459C61.0514 14.6562 63.3205 11.36 67.0669 11.36C68.7382 11.36 70.3211 11.8089 71.2358 13.0686H71.2884V6.11397L75.3517 5.19922V24.614H75.3693ZM48.7387 16.6928C48.7739 15.364 47.701 14.2422 46.2407 14.2422C44.4467 14.2422 43.4795 15.4331 43.3738 16.6928H48.7387ZM52.186 22.3877C50.8845 24.0099 48.7387 24.9419 46.6281 24.9419C42.5647 24.9419 39.3105 22.2844 39.3105 18.1598C39.3105 14.0349 42.5647 11.3776 46.6281 11.3776C50.427 11.3776 52.8193 14.0349 52.8193 18.1598V19.4022H43.3738C43.7081 20.921 44.869 21.9046 46.4344 21.9046C47.7711 21.9046 48.6506 21.249 49.3368 20.3342L52.186 22.3877ZM33.2422 6.11397L37.3055 5.19922V24.6313H33.2422V6.11397Z" fill="#0B0B0B"></path>
<path id="Fill-3" d="M4.13104 4.16016L3.11719 6.81496L3.61913 7.17025L8.18084 10.4002L11.3025 9.51103L28.0489 4.74184L4.13104 4.16016Z" fill="#0B0B0B"></path>
<path id="Fill-4" d="M12.2759 13.5192L27.0113 5.19922L8.3125 10.6381L12.2759 13.5192Z" fill="#0B0B0B"></path>
<path id="Fill-5" d="M4.15625 3.68148L25.9715 4.16L5.69261 0L4.15625 3.68148Z" fill="#0B0B0B"></path>
<path id="Fill-6" d="M0 5.19922L3.30793 7.27922L4.15528 5.29161L0 5.19922Z" fill="#0B0B0B"></path>
<path id="Fill-7" d="M2.87755 7.28125L1.03906 12.4812L7.27198 10.5903L2.87755 7.28125Z" fill="#0B0B0B"></path>
</g>
</svg>
