<svg xmlns="http://www.w3.org/2000/svg" fill="none" viewBox="0 0 112 40" height="40" width="112">
<g clip-path="url(#clip0_2395_45827)">
<path fill="#0B0B0B" d="M50.3468 21.9101H55.5815C55.5008 23.0651 56.0676 23.3333 56.3376 23.5216C56.634 23.6288 58.8202 23.7359 59.8992 23.548C60.331 23.4677 60.7355 23.3066 60.7355 21.9905C60.7355 21.4268 60.6006 20.8091 59.953 20.6744C57.6592 20.4869 55.4196 20.7283 53.1262 20.5132C50.8324 20.0036 50.4822 19.4123 50.3468 17.6132C50.5086 15.1158 51.3993 14.391 53.9626 14.3103C56.6334 14.2299 59.306 14.2299 61.9769 14.3103C64.7021 14.3103 65.5385 15.3581 65.5385 17.6405H60.7355C60.7355 16.5123 60.5198 16.0829 59.953 16.0289C58.7851 15.9486 57.6131 15.9486 56.4452 16.0289C56.0134 16.0289 55.447 16.244 55.447 17.2642C55.447 18.2305 55.6896 18.4724 56.3376 18.5536C58.3072 18.6335 60.3041 18.6607 62.2468 18.7942C65.4846 18.9825 65.5927 20.4057 65.7003 21.9093C65.7542 24.0581 64.9716 24.8093 64.4052 25.1591C63.8657 25.4006 61.2481 25.6964 60.7355 25.6964H55.555C54.3945 25.6964 52.9374 25.5621 51.6692 25.1859C50.4817 24.8641 50.3468 23.2798 50.3468 21.9101ZM99.5377 25.75H104.124V14.3647H99.5377V25.75ZM107.2 25.75H111.734V14.3647H107.2V25.75ZM96.8663 19.7885C96.7828 19.4323 96.6743 19.0825 96.5417 18.7415C95.7591 17.4793 93.0612 17.4793 90.444 17.4254C88.4744 17.4254 85.5335 17.4793 84.6698 18.3113C84.3187 18.6875 84.1299 19.2244 84.0222 19.7885C83.8872 20.4601 83.9137 21.1577 83.9137 21.4803C83.9137 22.0708 83.968 24.3531 85.0743 24.944C86.0995 25.6157 89.2023 25.6964 90.3894 25.6964C91.6576 25.6964 95.1658 25.5621 95.6788 24.9708C96.5955 24.6486 96.8116 23.5212 97.0004 22.6353H92.4944C92.4944 23.5212 91.7926 24.0585 90.3894 23.9769C89.1211 24.0581 88.3929 23.7627 88.3929 22.1788L97 22.2051C97.0004 21.4268 97.0282 20.594 96.8663 19.7885ZM92.4944 20.5672H88.3929C88.3929 20.245 88.4471 19.9759 88.5278 19.7885C88.8239 19.0637 89.5799 19.0369 90.3889 18.9829C91.6302 18.9829 92.1702 19.2783 92.3863 19.7885C92.4944 20.0036 92.5213 20.2718 92.4944 20.5672ZM68.3987 25.75H72.8778V20.9162C72.9859 20.2454 73.1478 19.7081 74.7936 19.7081C76.3582 19.6818 76.7901 20.1107 76.7901 20.9162V25.75H81.2692V20.9162C81.2692 19.3319 81.2427 18.4728 80.2171 18.0171C79.2996 17.4258 77.9772 17.5066 76.7363 17.5066C75.4411 17.5066 73.9841 17.6677 72.8778 18.205V14.3651H68.3987V25.75Z"></path>
<path fill="#0B0B0B" d="M39.2759 23.9174L32.7192 28.7076L31.9013 35.144H23.876L22.6747 36.0087C22.3911 36.2251 22.0406 36.3252 21.6736 36.3414C21.2899 36.3249 20.9562 36.2251 20.6391 36.0087L19.5045 35.144H11.5126L10.6449 28.7076L4.07111 23.9174C3.87099 23.1023 3.78739 22.3372 3.78739 21.6222C3.78739 20.3415 4.0543 19.0941 4.58827 17.8964L16.3011 29.6224L4.92199 15.6847C5.35583 13.8551 6.29018 12.2915 7.7417 11.0276L17.9529 28.4748L8.90977 9.34774C10.0777 7.76761 11.6292 6.68669 13.548 6.07106L19.7213 27.7592L15.2165 5.18921C16.6179 4.40731 18.1363 4.0082 19.738 4.0082L20.7391 4.07478L21.6901 27.5593L22.5909 4.07478L23.6087 4.0082C25.2106 4.0082 26.7121 4.40731 28.1306 5.18921L23.5753 27.7592L29.7989 6.07078C31.7174 6.68641 33.2359 7.76734 34.4371 9.34747L25.4442 28.4745L35.6051 11.0273C37.0567 12.2912 37.9909 13.8549 38.4249 15.6845L27.113 29.6219L38.7589 17.8964C39.2759 19.0941 39.5598 20.3415 39.5598 21.6222C39.5598 22.3372 39.4594 23.1023 39.2759 23.9174ZM41.6282 13.2228C40.5271 10.6282 38.9753 8.33272 36.9899 6.337C35.0042 4.35761 32.7019 2.81084 30.1155 1.71303C27.413 0.565656 24.5931 0 21.6733 0C18.7368 0 15.9339 0.565656 13.2309 1.71303C10.6446 2.81084 8.32525 4.35761 6.34004 6.337C4.33802 8.33272 2.80291 10.6282 1.70177 13.2228C0.567027 15.9006 0 18.7114 0 21.6222C0 23.0527 0.133321 24.4828 0.433706 25.9631L7.12412 30.7695L8.17513 38.9693H19.1036L19.7543 39.3682C20.3216 39.8008 20.9389 40 21.673 40C22.3906 40 23.0247 39.8008 23.5751 39.3682L24.1756 38.9693H35.2212L36.2556 30.7695L42.9126 25.9631C43.1965 24.4828 43.3468 23.0524 43.3468 21.6222C43.3468 18.7114 42.7795 15.9006 41.6282 13.2228Z" clip-rule="evenodd" fill-rule="evenodd"></path>
</g>
<defs>
<clipPath id="clip0_2395_45827">
<rect fill="white" height="40" width="112"></rect>
</clipPath>
</defs>
</svg>
