<svg width="54" height="28" viewBox="0 0 54 28" fill="none" xmlns="http://www.w3.org/2000/svg">
<g id="logo-stc">
<path id="Fill-1" d="M27.3415 27.52C29.4814 27.52 31.0072 26.8435 31.6693 26.2552V21.7061C31.1703 22.0885 30.1819 22.5492 28.9056 22.5492C27.994 22.5492 27.3415 22.3336 26.8425 21.8728C26.4298 21.4512 26.2283 20.7355 26.2283 19.7649V0.47998H20.7874V6.16642H31.6693V11.5587H20.7778V21.1178C20.7778 23.0591 21.3535 24.6179 22.3899 25.7062C23.5414 26.8925 25.2303 27.52 27.3415 27.52ZM43.9906 27.52C47.0422 27.52 49.3932 26.3827 50.9957 24.7846C52.272 23.5199 53.0589 22.0492 53.4715 20.5296L48.6447 18.8825C48.4432 19.6374 48.0306 20.4413 47.3684 21.0688C46.5815 21.8237 45.5164 22.3728 43.9906 22.3728C42.5896 22.3728 41.2653 21.8237 40.3153 20.8531C39.3653 19.8433 38.7896 18.3629 38.7896 16.5099C38.7896 14.6176 39.3653 13.1862 40.3153 12.1764C41.2653 11.2058 42.5416 10.7058 43.9426 10.7058C45.43 10.7058 46.4568 11.2156 47.1957 11.9705C47.8098 12.6078 48.1841 13.4019 48.4336 14.2059L53.3372 12.5195C52.9629 11.0489 52.1856 9.56848 51.0245 8.35276C49.374 6.70565 46.9846 5.52915 43.8083 5.52915C40.8815 5.52915 38.2426 6.66643 36.3426 8.60767C34.4713 10.5881 33.3198 13.3235 33.3198 16.5295C33.3198 19.7354 34.5193 22.4708 36.4481 24.4513C38.3481 26.3827 41.0254 27.52 43.9906 27.52ZM9.19532 27.52C11.959 27.52 14.2237 26.6376 15.711 25.1572C16.8242 24.0199 17.4863 22.5002 17.4863 20.7355C17.4863 19.1374 16.9105 17.706 15.8358 16.6079C14.761 15.5098 13.2353 14.7157 11.2969 14.3333L8.12056 13.7059C6.8059 13.4509 6.05741 12.7843 6.05741 11.8529C6.05741 10.6371 7.20894 9.79398 9.07057 9.79398C10.2221 9.79398 11.2105 10.1763 11.8726 10.843C12.2852 11.3038 12.5731 11.9019 12.6595 12.5686L17.2368 11.5195C17.1121 10.1763 16.4979 8.99003 15.5479 8.01942C14.0605 6.49976 11.7575 5.53895 9.03219 5.53895C6.51802 5.53895 4.41649 6.38211 2.96748 7.72529C1.72959 8.90179 1.02908 10.5097 1.02908 12.2744C1.02908 13.8333 1.52807 15.1373 2.51647 16.1471C3.50486 17.1569 4.95386 17.9119 6.84429 18.3825L9.9822 19.1374C11.5464 19.5198 12.2469 20.108 12.2469 21.1571C12.2469 22.461 11.0953 23.2257 9.19532 23.2257C7.83268 23.2257 6.71954 22.7649 6.01903 22.0002C5.52003 21.4904 5.23215 20.8237 5.19377 20.059L0.491699 21.108C0.616448 22.5394 1.27858 23.8042 2.26697 24.814C3.84072 26.5101 6.35489 27.52 9.19532 27.52Z" fill="#0B0B0B"></path>
</g>
</svg>
