<svg width="108" height="19" viewBox="0 0 108 19" fill="none" xmlns="http://www.w3.org/2000/svg">
<g id="Logo_Toyota">
<g id="Group">
<path id="Shape" d="M95.2552 10.8547L97.7699 4.3189L100.281 10.8547H95.2552ZM100.382 0.607544H95.1574L87.8569 18.3289H92.3826L94.0448 14.0043H101.493L103.156 18.3289H107.68L100.382 0.607544ZM63.5346 15.2479C60.5865 15.2479 58.2008 12.6129 58.2008 9.36106C58.2008 6.10921 60.5875 3.47231 63.5346 3.47231C66.4777 3.47231 68.8675 6.10879 68.8675 9.36106C68.8675 12.6133 66.4777 15.2479 63.5346 15.2479ZM63.5346 1.22084e-06C58.3184 0.00151726 54.0909 4.19259 54.0917 9.36148C54.0925 14.5304 58.3214 18.72 63.5375 18.72C68.7537 18.72 72.9823 14.5299 72.9829 9.36106C72.9819 4.19086 68.752 1.22084e-06 63.5346 1.22084e-06ZM26.2523 15.2479C23.3089 15.2479 20.9215 12.6129 20.9215 9.36106C20.9215 6.10921 23.3083 3.47231 26.2523 3.47231C29.1963 3.47231 31.5867 6.10879 31.5867 9.36106C31.5867 12.6133 29.1993 15.2479 26.2523 15.2479ZM26.2523 6.10005e-07C21.0361 0.00140065 16.8085 4.19242 16.8093 9.36134C16.81 14.5303 21.0388 18.72 26.255 18.72C31.4712 18.72 35.6999 14.53 35.7005 9.36106C35.701 6.87794 34.7057 4.4964 32.9336 2.74071C31.1616 0.985021 28.7581 -0.000895262 26.2523 6.10005e-07ZM49.6046 0.607544L44.9754 7.77747L40.3425 0.607544H35.8155L42.9809 11.7207V18.3289H46.966V11.7224L54.1316 0.607544H49.6046ZM88.8091 0.607544H73.5174V4.00573H79.1813V18.3289H83.1706V4.00573H88.8095L88.8091 0.607544ZM0.681152 4.00573H6.34672V18.3289H10.3335V4.00573H15.9743V0.607544H0.681152V4.00573Z" fill="#0B0B0B"></path>
</g>
</g>
</svg>
