<svg width="131" height="33" viewBox="0 0 131 33" fill="none" xmlns="http://www.w3.org/2000/svg">
<g id="Vodaphone-Logo">
<path id="Shape" d="M16.5761 0.47998C7.68071 0.47998 0.471436 7.69745 0.471436 16.603C0.471436 25.5025 7.68071 32.72 16.5761 32.72C25.4715 32.72 32.6749 25.5025 32.6749 16.597C32.6749 7.69745 25.4656 0.47998 16.5761 0.47998ZM16.7012 25.5862C12.2803 25.6039 7.67475 21.8222 7.65678 15.75C7.64496 11.7356 9.80774 7.87043 12.5723 5.57993C15.2713 3.34907 18.9653 1.91154 22.3138 1.89961C22.7427 1.89961 23.1955 1.9354 23.4756 2.03084C20.5442 2.63926 18.2146 5.37116 18.2265 8.46095C18.2265 8.56235 18.2325 8.67568 18.2444 8.7234C23.1479 9.92233 25.3702 12.8809 25.3881 16.9788C25.3941 21.0766 22.1648 25.5681 16.7012 25.5862Z" fill="#0B0B0B"></path>
<g id="Group">
<path id="Path" d="M42.7674 24.1305L37.8699 12.519H41.0717L44.1252 20.2267L47.0839 12.5249H50.1375L45.3822 24.1364H42.7674V24.1305Z" fill="#0B0B0B"></path>
<path id="Shape_2" d="M58.6701 18.2673C58.6701 17.7845 58.6168 17.3252 58.4982 16.8895C58.3855 16.4537 58.2136 16.0769 57.9883 15.7648C57.763 15.4469 57.4902 15.1995 57.1641 15.017C56.838 14.8286 56.4585 14.7344 56.0257 14.7344C55.5929 14.7344 55.2075 14.8286 54.8873 15.017C54.5612 15.1995 54.2884 15.4469 54.0631 15.7648C53.8378 16.0769 53.6658 16.4537 53.5532 16.8895C53.4405 17.3252 53.3812 17.7845 53.3812 18.2673C53.3812 18.7678 53.4346 19.233 53.5532 19.6569C53.6658 20.0809 53.8319 20.4577 54.0453 20.7815C54.2647 21.1054 54.5374 21.3586 54.8754 21.547C55.2075 21.7295 55.5929 21.8238 56.0257 21.8238C56.4585 21.8238 56.8439 21.7295 57.1641 21.547C57.4902 21.3586 57.763 21.1054 57.9883 20.7815C58.2136 20.4577 58.3855 20.0867 58.4982 19.6569C58.6108 19.233 58.6701 18.7678 58.6701 18.2673ZM61.6288 18.2791C61.6288 19.0386 61.5103 19.7806 61.279 20.5107C61.0418 21.2408 60.6979 21.8944 60.2355 22.4715C59.7789 23.0485 59.1919 23.5137 58.4923 23.867C57.7867 24.2202 56.9684 24.3969 56.0316 24.3969C55.0948 24.3969 54.2706 24.2202 53.571 23.867C52.8654 23.5137 52.2843 23.0485 51.8218 22.4715C51.3653 21.8944 51.0155 21.2408 50.7783 20.5107C50.5471 19.7806 50.4285 19.0386 50.4285 18.2791C50.4285 17.5254 50.5471 16.7894 50.7783 16.0651C51.0155 15.3409 51.3594 14.6991 51.8218 14.1279C52.2843 13.5567 52.8654 13.1034 53.571 12.756C54.2706 12.4085 55.0948 12.2378 56.0316 12.2378C56.9684 12.2378 57.7867 12.4144 58.4804 12.756C59.1741 13.1034 59.7552 13.5567 60.2236 14.1279C60.692 14.6991 61.0478 15.3468 61.279 16.0651C61.5103 16.7894 61.6288 17.5254 61.6288 18.2791Z" fill="#0B0B0B"></path>
<path id="Shape_3" d="M70.6596 15.0729C70.0785 14.8491 69.539 14.7313 69.0409 14.7313C68.531 14.7313 68.0863 14.8314 67.7187 15.0257C67.3451 15.2201 67.0427 15.4791 66.7996 15.8089C66.5565 16.1386 66.3787 16.5096 66.2601 16.9217C66.1415 17.3339 66.0763 17.7579 66.0763 18.1877C66.0763 18.6705 66.1296 19.1298 66.2364 19.5773C66.3372 20.0189 66.5032 20.4075 66.7166 20.7373C66.9301 21.067 67.2028 21.332 67.5349 21.5381C67.8669 21.7383 68.2582 21.8384 68.7089 21.8384C69.0824 21.8384 69.456 21.7383 69.8414 21.5381C70.2268 21.3379 70.4995 21.0965 70.6655 20.8256L70.6596 15.0729ZM70.9027 24.1289L70.7841 23.2398C70.5114 23.5459 70.1497 23.8109 69.6931 24.0464C69.2425 24.282 68.7089 24.3997 68.0982 24.3997C67.2918 24.3997 66.5803 24.229 65.9755 23.8933C65.3588 23.5577 64.843 23.1043 64.4279 22.545C64.007 21.9856 63.6868 21.332 63.4733 20.5901C63.2599 19.8541 63.1472 19.0827 63.1472 18.276C63.1472 17.5223 63.2599 16.7804 63.4852 16.0621C63.7105 15.3378 64.0544 14.696 64.5109 14.1249C64.9734 13.5537 65.5486 13.1003 66.2423 12.7529C66.936 12.4055 67.7483 12.2347 68.6851 12.2347C69.2959 12.2347 69.9599 12.3466 70.6714 12.5704V8.06592H73.6776V24.1289H70.9027Z" fill="#0B0B0B"></path>
<path id="Shape_4" d="M82.1338 18.6893C81.8077 18.707 81.4756 18.7364 81.1317 18.7717C80.7878 18.813 80.4676 18.866 80.1593 18.9307C79.5071 19.0603 79.0565 19.2781 78.8015 19.5902C78.5525 19.9082 78.422 20.2438 78.422 20.6147C78.422 20.9975 78.5644 21.3096 78.849 21.5392C79.1336 21.7688 79.5367 21.8866 80.0585 21.8866C80.4499 21.8866 80.8293 21.8101 81.1969 21.6452C81.5646 21.4862 81.8788 21.2801 82.1338 21.0446V18.6893ZM82.3769 24.1241L82.2583 23.2585C81.9322 23.6177 81.5171 23.8945 81.0131 24.0947C80.5091 24.2949 79.9577 24.4009 79.3589 24.4009C78.8549 24.4009 78.3687 24.3184 77.9121 24.1477C77.4496 23.9828 77.0405 23.7355 76.6788 23.4234C76.3231 23.1113 76.0326 22.7286 75.8191 22.2693C75.5997 21.8101 75.4871 21.2919 75.4871 20.7148C75.4871 20.1378 75.5997 19.6255 75.831 19.1839C76.0563 18.7423 76.3646 18.3714 76.7559 18.0652C77.1473 17.759 77.592 17.5117 78.0959 17.3174C78.594 17.1231 79.1276 16.9759 79.6791 16.8816C80.0704 16.8051 80.4973 16.7462 80.9538 16.705C81.4163 16.6638 81.8017 16.6285 82.11 16.599V16.4283C82.11 15.7864 81.944 15.3272 81.612 15.0563C81.28 14.7855 80.8175 14.6441 80.2364 14.6441C79.8925 14.6441 79.5664 14.6854 79.2581 14.7678C78.9498 14.8443 78.677 14.9444 78.428 15.0681C78.1849 15.1917 77.9714 15.3095 77.7817 15.4332C77.5979 15.5509 77.4437 15.6628 77.3311 15.757L76.3349 13.6608C76.4654 13.5489 76.6611 13.4135 76.9279 13.2486C77.1947 13.0897 77.5149 12.9307 77.9003 12.7776C78.2797 12.6245 78.7067 12.4949 79.181 12.389C79.6553 12.283 80.1712 12.23 80.7226 12.23C81.3689 12.23 81.9618 12.3124 82.4954 12.4832C83.0291 12.6539 83.4916 12.913 83.877 13.2781C84.2624 13.6373 84.5648 14.0965 84.7841 14.65C85.0035 15.2035 85.1103 15.8748 85.1103 16.6579V24.1182L82.3769 24.1241Z" fill="#0B0B0B"></path>
<path id="Path_2" d="M94.412 10.7171C94.3171 10.67 94.1274 10.5993 93.8428 10.511C93.5582 10.4227 93.1846 10.3815 92.7103 10.3815C92.2893 10.3815 91.9395 10.5051 91.6549 10.7583C91.3703 11.0056 91.2339 11.4119 91.2339 11.9772V12.5307H93.7597V14.9389H91.2576V24.1422H88.2515V14.933H86.698V12.5248H88.2515V11.9006C88.2515 11.1469 88.3463 10.511 88.542 9.98696C88.7377 9.4688 89.0045 9.03897 89.3543 8.71512C89.7041 8.38538 90.1133 8.14396 90.5817 7.99087C91.0501 7.83778 91.56 7.76123 92.1114 7.76123C92.8407 7.76123 93.4396 7.826 93.9139 7.96732C94.3883 8.10274 94.6729 8.19696 94.7499 8.24406L94.412 10.7171Z" fill="#0B0B0B"></path>
<path id="Shape_5" d="M102.61 18.2673C102.61 17.7845 102.55 17.3252 102.438 16.8895C102.325 16.4537 102.153 16.0769 101.928 15.7648C101.702 15.4469 101.43 15.1995 101.104 15.017C100.778 14.8286 100.398 14.7344 99.9652 14.7344C99.5324 14.7344 99.147 14.8286 98.8268 15.017C98.5007 15.1995 98.2279 15.4469 97.9967 15.7648C97.7714 16.0769 97.5994 16.4537 97.4868 16.8895C97.3741 17.3252 97.3208 17.7845 97.3208 18.2673C97.3208 18.7678 97.3741 19.233 97.4868 19.6569C97.5994 20.0809 97.7655 20.4577 97.9848 20.7815C98.2042 21.1054 98.477 21.3586 98.809 21.547C99.141 21.7295 99.5264 21.8238 99.9652 21.8238C100.398 21.8238 100.783 21.7295 101.104 21.547C101.43 21.3586 101.702 21.1054 101.928 20.7815C102.153 20.4577 102.325 20.0867 102.438 19.6569C102.55 19.233 102.61 18.7678 102.61 18.2673ZM105.568 18.2791C105.568 19.0386 105.45 19.7806 105.213 20.5107C104.981 21.2408 104.632 21.8944 104.169 22.4715C103.713 23.0485 103.126 23.5137 102.426 23.867C101.72 24.2202 100.902 24.3969 99.9652 24.3969C99.0284 24.3969 98.2042 24.2202 97.5046 23.867C96.799 23.5137 96.2179 23.0485 95.7554 22.4715C95.2989 21.8944 94.9491 21.2408 94.7119 20.5107C94.4747 19.7806 94.3621 19.0386 94.3621 18.2791C94.3621 17.5254 94.4747 16.7894 94.7119 16.0651C94.9491 15.3409 95.293 14.6991 95.7554 14.1279C96.2179 13.5567 96.799 13.1034 97.5046 12.756C98.2042 12.4085 99.0284 12.2378 99.9652 12.2378C100.902 12.2378 101.72 12.4144 102.414 12.756C103.108 13.1034 103.689 13.5567 104.157 14.1279C104.626 14.6991 104.981 15.3468 105.213 16.0651C105.45 16.7894 105.568 17.5254 105.568 18.2791Z" fill="#0B0B0B"></path>
<path id="Path_3" d="M114.905 24.1319V17.5136C114.905 16.6304 114.721 15.9473 114.347 15.4645C113.974 14.9876 113.458 14.7403 112.794 14.7403C112.326 14.7403 111.893 14.858 111.501 15.1053C111.104 15.3468 110.76 15.6117 110.47 15.9002V24.1378H107.464V12.5263H110.203L110.345 13.439C110.814 13.0562 111.341 12.756 111.934 12.5499C112.521 12.3379 113.12 12.2378 113.713 12.2378C114.33 12.2378 114.893 12.3261 115.409 12.5145C115.925 12.703 116.369 12.9915 116.743 13.3919C117.116 13.7923 117.401 14.3163 117.603 14.9581C117.804 15.5999 117.905 16.3713 117.905 17.2722V24.1378L114.905 24.1319Z" fill="#0B0B0B"></path>
<path id="Shape_6" d="M127.265 16.9287C127.236 16.5284 127.147 16.1751 127.01 15.8807C126.874 15.5804 126.702 15.3448 126.5 15.1564C126.299 14.968 126.079 14.8326 125.842 14.7442C125.605 14.6559 125.368 14.6147 125.119 14.6147C124.597 14.6147 124.105 14.809 123.631 15.1917C123.162 15.5804 122.884 16.1515 122.801 16.9229H127.265V16.9287ZM122.735 19.072C122.801 20.0495 123.109 20.7561 123.66 21.1918C124.212 21.6216 124.929 21.8454 125.801 21.8454C126.21 21.8454 126.589 21.8101 126.945 21.7394C127.301 21.6687 127.621 21.5745 127.894 21.4626C128.173 21.3508 128.404 21.2389 128.599 21.127C128.795 21.0151 128.937 20.9092 129.038 20.8091L129.839 23.2468C129.726 23.3233 129.542 23.4352 129.293 23.5706C129.044 23.706 128.73 23.8356 128.362 23.9592C127.989 24.077 127.55 24.183 127.052 24.2713C126.554 24.3596 126.002 24.4009 125.404 24.4009C124.639 24.4009 123.921 24.2831 123.233 24.0417C122.546 23.8003 121.947 23.4234 121.431 22.917C120.915 22.4106 120.5 21.7806 120.192 21.0269C119.883 20.2732 119.729 19.3723 119.729 18.3301C119.729 17.3527 119.872 16.4812 120.15 15.7276C120.435 14.9739 120.82 14.3379 121.312 13.8257C121.804 13.3134 122.38 12.9189 123.032 12.6422C123.69 12.3713 124.384 12.23 125.131 12.23C125.878 12.23 126.56 12.3536 127.194 12.595C127.823 12.8365 128.368 13.2074 128.831 13.7138C129.287 14.2202 129.655 14.8738 129.922 15.6805C130.188 16.4812 130.325 17.4351 130.325 18.548V19.0779H122.735V19.072Z" fill="#0B0B0B"></path>
</g>
</g>
</svg>
